<svg xmlns="http://www.w3.org/2000/svg" viewBox="0 0 3667.0 745.0" fill="currentColor">
  <g transform="matrix(1 0 0 -1 0 700.0)">
    <path transform="translate(0.0,0)" fill="#D97757" d="M75 -45Q46 -43 36.5 -37.0Q27 -31 27 -23Q27 -20 28 -18L214 675Q243 673 252.0 666.5Q261 660 261 652V647Z"/>
    <path transform="translate(257.0,0)" d="M452 89Q452 77 454.0 68.5Q456 60 462.0 54.0Q468 48 478.5 44.5Q489 41 506 39Q519 37 519 26Q519 20 517 12Q504 12 482.5 10.5Q461 9 446 7Q424 3 407.5 -1.5Q391 -6 383 -6Q369 -6 369 9V85Q355 66 341.0 48.5Q327 31 308.5 17.5Q290 4 266.0 -4.0Q242 -12 208 -12Q174 -12 143.0 2.0Q112 16 88.0 43.5Q64 71 49.5 111.0Q35 151 35 202Q35 257 56.0 300.5Q77 344 108.0 373.5Q139 403 175.5 418.5Q212 434 243 434Q281 434 310.5 426.5Q340 419 369 407V596Q369 626 358.5 638.5Q348 651 313 654Q300 656 300 668Q300 674 302 682Q315 682 338.5 683.5Q362 685 377 687Q400 690 418.0 695.0Q436 700 444 700Q458 700 458 685Q458 668 455.0 646.0Q452 624 452 592ZM369 342Q344 368 314.0 383.0Q284 398 246 398Q188 398 158.5 350.0Q129 302 129 227Q129 189 137.5 154.5Q146 120 162.5 94.0Q179 68 202.5 53.0Q226 38 255 38Q275 38 295.0 50.0Q315 62 331.5 80.5Q348 99 358.5 122.5Q369 146 369 169Z"/>
    <path transform="translate(853.0,0)" d="M397 93Q404 100 412 100Q422 100 431 83Q418 65 401.0 48.0Q384 31 360.5 17.5Q337 4 307.0 -4.0Q277 -12 238 -12Q198 -12 162.0 1.0Q126 14 98.5 41.0Q71 68 54.5 108.0Q38 148 38 202Q38 253 57.5 296.0Q77 339 108.0 369.5Q139 400 176.5 417.0Q214 434 249 434Q342 434 384.5 380.0Q427 326 427 239Q427 233 421 233L131 220Q131 181 142.0 148.0Q153 115 173.0 91.0Q193 67 221.5 53.5Q250 40 286 40Q318 40 347.5 55.0Q377 70 397 93ZM235 398Q185 398 157.0 359.0Q129 320 129 257L318 266Q333 266 333 279Q333 298 327.0 319.0Q321 340 309.0 357.5Q297 375 278.5 386.5Q260 398 235 398Z"/>
    <path transform="translate(1368.0,0)" d="M175 80Q200 54 230.0 39.0Q260 24 299 24Q356 24 385.5 72.0Q415 120 415 195Q415 233 406.5 267.5Q398 302 381.5 328.0Q365 354 342.0 369.0Q319 384 289 384Q269 384 249.0 372.5Q229 361 212.5 343.0Q196 325 185.5 302.5Q175 280 175 257ZM92 596Q92 626 81.5 638.5Q71 651 36 654Q23 656 23 668Q23 674 25 682Q38 682 61.5 683.5Q85 685 100 687Q123 690 141.0 695.0Q159 700 167 700Q181 700 181 685Q181 668 178.0 646.0Q175 624 175 592V342Q212 391 248.0 412.5Q284 434 336 434Q370 434 401.5 420.0Q433 406 457.0 378.5Q481 351 495.5 311.0Q510 271 510 220Q510 164 489.0 121.0Q468 78 437.0 48.5Q406 19 369.0 3.5Q332 -12 301 -12Q263 -12 228.0 -3.0Q193 6 165 20Q154 19 144.0 14.0Q134 9 126.0 3.5Q118 -2 111.5 -6.5Q105 -11 101 -11Q93 -11 86 -7Q87 9 88.0 21.5Q89 34 90.0 46.0Q91 58 91.5 70.5Q92 83 92 99Z"/>
    <path transform="translate(1962.0,0)" d="M321 433Q350 433 364.0 419.0Q378 405 378 388Q378 382 376.0 377.0Q374 372 366.5 366.5Q359 361 345.5 353.5Q332 346 308 335Q299 346 286.5 354.0Q274 362 259 362Q242 362 228.0 352.5Q214 343 204.0 326.5Q194 310 188.5 288.5Q183 267 183 244V72Q183 50 206.0 39.5Q229 29 272 23Q282 21 282 11Q282 5 280 -5Q269 -4 252.5 -3.5Q236 -3 218.0 -2.0Q200 -1 181.0 -0.5Q162 0 146 0Q119 0 90.0 -1.5Q61 -3 35 -5Q33 5 33 11Q33 21 42 23Q65 27 82.5 35.0Q100 43 100 58V312Q100 333 97.5 347.0Q95 361 89.0 369.5Q83 378 71.5 382.0Q60 386 42 388Q29 390 29 401Q29 407 31 415Q44 415 67.5 416.5Q91 418 106 420Q128 424 144.5 428.5Q161 433 169 433Q183 433 183 418V351Q215 386 247.5 409.5Q280 433 321 433Z"/>
    <path transform="translate(2391.0,0)" d="M142 0Q125 0 107.5 -0.5Q90 -1 75.0 -2.0Q60 -3 49.0 -4.0Q38 -5 35 -5Q35 -4 34.0 2.0Q33 8 33 11Q33 21 42 23Q68 28 84.0 35.0Q100 42 100 58V330Q100 360 89.5 373.0Q79 386 44 389Q31 391 31 403Q31 408 33 416Q46 416 69.5 417.5Q93 419 108 421Q131 425 149.0 429.5Q167 434 175 434Q189 434 189 419Q189 405 186.0 385.5Q183 366 183 334V58Q183 42 198.5 35.0Q214 28 242 23Q250 21 250 11Q250 8 249.5 2.0Q249 -4 248 -5Q245 -5 234.5 -4.0Q224 -3 209.0 -2.0Q194 -1 176.5 -0.5Q159 0 142 0ZM84 601Q84 625 100.5 642.5Q117 660 142 660Q166 660 182.0 642.5Q198 625 198 601Q198 575 182.0 559.0Q166 543 142 543Q117 543 100.5 559.0Q84 575 84 601Z"/>
    <path transform="translate(2714.0,0)" d="M397 93Q404 100 412 100Q422 100 431 83Q418 65 401.0 48.0Q384 31 360.5 17.5Q337 4 307.0 -4.0Q277 -12 238 -12Q198 -12 162.0 1.0Q126 14 98.5 41.0Q71 68 54.5 108.0Q38 148 38 202Q38 253 57.5 296.0Q77 339 108.0 369.5Q139 400 176.5 417.0Q214 434 249 434Q342 434 384.5 380.0Q427 326 427 239Q427 233 421 233L131 220Q131 181 142.0 148.0Q153 115 173.0 91.0Q193 67 221.5 53.5Q250 40 286 40Q318 40 347.5 55.0Q377 70 397 93ZM235 398Q185 398 157.0 359.0Q129 320 129 257L318 266Q333 266 333 279Q333 298 327.0 319.0Q321 340 309.0 357.5Q297 375 278.5 386.5Q260 398 235 398Z"/>
    <path transform="translate(3229.0,0)" d="M97 380H37V398Q37 409 46.5 411.5Q56 414 67.0 415.5Q78 417 87.5 422.5Q97 428 97 446V492Q97 547 112.5 586.0Q128 625 152.0 650.5Q176 676 205.5 688.0Q235 700 263 700Q296 700 322.5 693.5Q349 687 368.0 676.0Q387 665 397.5 651.5Q408 638 408 624Q408 618 399.5 612.5Q391 607 380.5 603.0Q370 599 360.0 597.0Q350 595 346 595Q332 595 325 607Q314 629 298.5 646.0Q283 663 252 663Q216 663 198.5 633.5Q181 604 181 549V422H299Q299 402 296.0 391.0Q293 380 279 380H181V74Q181 48 204.0 38.5Q227 29 279 24Q290 22 290 11Q290 8 289.0 2.0Q288 -4 288 -5Q285 -5 270.5 -4.0Q256 -3 236.0 -2.0Q216 -1 193.0 -0.5Q170 0 150 0Q133 0 115.5 -0.5Q98 -1 82.0 -2.0Q66 -3 54.5 -4.0Q43 -5 40 -5Q40 -4 39.0 2.0Q38 8 38 11Q38 21 47 23Q69 27 83.0 34.5Q97 42 97 58Z"/>
  </g>
</svg>
